<svg xmlns="http://www.w3.org/2000/svg" class="schedule active" width="245" height="50" viewBox="0 0 245 50">
     <g fill="grey">
          <rect x="4" y="0" height="10%" width="12"></rect>
          <rect x="18" y="0" height="20%" width="12"></rect>
          <rect x="32" y="0" height="30%" width="12"></rect>
          <rect x="46" y="0" height="31%" width="12"></rect>
          <rect x="60" y="0" height="38%" width="12"></rect>
          <rect x="74" y="0" height="40%" width="12"></rect>
          <rect x="88" y="0" height="44%" width="12"></rect>
          <rect x="102" y="0" height="48%" width="12"></rect>
          <rect x="116" y="0" height="50%" width="12"></rect>
          <rect x="130" y="0" height="52%" width="12"></rect>
          <rect x="144" y="0" height="70%" width="12"></rect>
          <rect x="158" y="0" height="10%" width="12"></rect>
          <rect x="172" y="0" height="40%" width="12"></rect>
          <rect x="186" y="0" height="20%" width="12"></rect>
          <rect x="200" y="0" height="20%" width="12"></rect>
          <rect x="214" y="0" height="10%" width="12"></rect>
          <rect x="228" y="0" height="8%" width="12"></rect>
     </g>
     <g fill="red">
          <rect x="4" y="0" height="0%" width="12"></rect>
          <rect x="18" y="0" height="0%" width="12"></rect>
          <rect x="32" y="0" height="0%" width="12"></rect>
          <rect x="46" y="0" height="0%" width="12"></rect>
          <rect x="60" y="0" height="0%" width="12"></rect>
          <rect x="74" y="0" height="0%" width="12"></rect>
          <rect x="88" y="0" height="0%" width="12"></rect>
          <rect x="102" y="0" height="0%" width="12"></rect>
          <rect x="116" y="0" height="0%" width="12"></rect>
          <rect x="130" y="0" height="0%" width="12"></rect>
          <rect x="144" y="0" height="0%" width="12"></rect>
          <rect x="158" y="0" height="0%" width="12"></rect>
          <rect x="172" y="0" height="0%" width="12"></rect>
          <rect x="186" y="0" height="0%" width="12"></rect>
          <rect x="200" y="0" height="0%" width="12"></rect>
          <rect x="214" y="0" height="0%" width="12"></rect>
          <rect x="228" y="0" height="0%" width="12"></rect>
     </g>
</svg>
